<svg version="1.1" id="Layer_1" xmlns="http://www.w3.org/2000/svg" xmlns:xlink="http://www.w3.org/1999/xlink" x="0px" y="0px"
	 width="100%" viewBox="0 0 500 500" enable-background="new 0 0 500 500" xml:space="preserve">
<path fill="#020406" opacity="1.000000" stroke="none" 
	d="
M1.000000,450.000000 
	C1.000000,300.379181 1.000000,150.758331 1.000000,1.068753 
	C167.569763,1.068753 334.139587,1.068753 501.000000,1.068753 
	C501.000000,150.357285 501.000000,299.714752 500.536621,449.611389 
	C334.877136,450.155396 169.681030,450.160583 4.484919,450.158325 
	C3.323278,450.158295 2.161640,450.055054 1.000000,450.000000 
M349.001892,107.987335 
	C349.001892,107.987335 348.955200,107.938980 348.454437,108.280952 
	C348.242249,108.836411 348.030060,109.391876 347.271637,110.374397 
	C343.058685,115.080673 344.278076,120.569565 344.669220,126.600967 
	C342.664062,131.922607 339.978912,137.433548 333.525787,136.856934 
	C326.559052,136.234406 323.746063,139.923767 321.160065,145.044342 
	C319.664520,148.005737 317.999054,150.905365 316.146759,153.655487 
	C314.452820,156.170517 314.807770,158.143402 317.379547,160.654510 
	C320.516663,167.682037 319.000580,172.585190 311.444061,178.067093 
	C310.967743,178.349594 310.491425,178.632095 309.492767,178.869400 
	C309.333893,178.942200 309.175018,179.014984 308.183044,179.030075 
	C303.642487,178.391846 300.818542,180.410950 298.858765,184.469360 
	C296.796539,188.739868 294.281250,192.791595 291.427429,197.355499 
	C287.576080,204.167618 283.724731,210.979736 279.296600,218.169632 
	C277.486633,221.383286 275.676636,224.596939 273.315521,228.216949 
	C271.312958,231.759415 269.310394,235.301865 266.891907,239.296631 
	C265.225677,242.200455 263.559479,245.104294 261.366455,248.466782 
	C257.190155,252.744247 259.168396,256.222137 263.011780,260.085632 
	C265.854675,263.010284 268.637177,265.997162 271.562195,268.837219 
	C273.440704,270.661194 275.125793,270.080383 276.308472,267.904785 
	C278.340363,264.167023 280.322113,260.401978 282.798706,256.119415 
	C284.639893,252.782379 286.481110,249.445358 288.841858,245.718399 
	C289.932587,243.552155 291.023315,241.385910 292.661652,238.802094 
	C294.194397,235.743988 295.727112,232.685867 297.845734,229.206345 
	C299.491516,225.463943 301.137329,221.721558 302.892578,217.143311 
	C303.003937,207.973312 306.502686,204.149353 315.494720,203.672104 
	C318.489685,203.513138 320.613770,202.590179 321.757111,198.968399 
	C325.648560,192.256546 329.539978,185.544693 333.930267,178.291367 
	C335.269409,176.040848 336.557251,173.757767 337.960144,171.547714 
	C339.910522,168.475159 340.756226,165.658783 339.050781,161.850052 
	C336.148468,155.368286 339.864777,148.224731 346.493713,145.779327 
	C348.097443,145.187729 350.027924,144.199280 350.796753,142.826767 
	C358.003693,129.961121 364.990601,116.972206 372.566528,103.584450 
	C379.327637,91.477585 386.088715,79.370728 393.349670,66.368790 
	C390.776031,66.255211 389.371429,66.193230 387.116394,65.919006 
	C385.075592,65.995552 383.034821,66.072098 380.131470,65.997314 
	C376.772247,66.108391 372.964325,64.822784 370.772644,68.753014 
	C365.159149,78.819389 359.590790,88.910934 353.996582,98.999237 
	C353.996582,98.999237 353.994904,99.009941 353.516998,99.353424 
	C353.299316,99.886871 353.081604,100.420319 352.949158,100.953438 
	C352.949158,100.953438 352.909058,100.878189 352.366791,101.259155 
	C351.835663,102.458412 351.304504,103.657669 350.882751,104.892326 
	C350.882751,104.892326 350.873016,104.777763 350.400299,105.011375 
	C350.293427,105.335648 350.186554,105.659912 349.830322,106.147957 
	C349.830322,106.147957 349.885162,106.441223 349.360962,106.800491 
	C349.219391,107.191292 349.077850,107.582092 349.001892,107.987335 
M269.436798,183.034195 
	C269.339111,183.346115 269.241455,183.658035 268.872925,184.235687 
	C268.872925,184.235687 268.902069,184.614044 268.467224,184.941559 
	C268.366211,185.279999 268.265198,185.618439 267.700806,186.483246 
	C265.765533,190.256149 263.830231,194.029037 261.325256,198.211319 
	C259.229095,202.476868 257.132904,206.742416 254.525192,211.460220 
	C253.223190,214.140350 251.921188,216.820465 250.105850,220.014313 
	C245.821106,225.628067 246.343903,231.339020 249.970322,237.808640 
	C251.531845,240.997665 253.093353,244.186676 255.233170,248.556717 
	C257.900909,243.836197 259.840637,240.403854 262.239532,236.449234 
	C265.088837,231.611603 267.938141,226.773972 271.200653,221.377716 
	C273.143494,217.922302 275.086334,214.466888 277.546936,210.587631 
	C279.073792,207.805649 280.600616,205.023651 282.670135,201.811905 
	C286.526855,194.911285 290.383575,188.010651 294.729370,180.706772 
	C298.232666,176.711945 294.241516,174.117325 292.892242,170.125519 
	C293.263031,166.751602 293.633820,163.377670 294.552856,159.602722 
	C297.009369,157.759155 299.559906,154.249985 301.904816,154.382416 
	C309.112762,154.789505 311.787811,150.262817 314.579865,145.232498 
	C316.106995,142.481125 317.742188,139.785126 319.432281,137.130096 
	C321.195740,134.359894 321.728760,131.652054 319.358368,127.997086 
	C317.395142,116.023857 324.202667,108.885735 335.787384,111.276581 
	C339.560028,112.055191 340.908722,110.314034 342.366760,107.708878 
	C348.457184,96.826645 354.590393,85.968361 360.688354,75.090309 
	C362.255402,72.294876 363.751007,69.459373 365.416656,66.389404 
	C362.230835,65.910103 359.750488,65.091606 357.331970,65.245438 
	C341.751923,66.236397 330.042816,74.020096 321.671539,86.804291 
	C317.218658,93.604530 313.445465,100.864075 309.582916,108.033447 
	C302.969971,120.307922 296.527832,132.674393 289.810577,145.160950 
	C289.810577,145.160950 289.903595,145.401596 289.357697,145.785400 
	C289.219086,146.199890 289.080475,146.614365 288.401459,147.449448 
	C285.874878,152.513992 283.348297,157.578552 280.277740,163.088379 
	C278.219452,167.068314 276.161194,171.048233 273.615448,175.502518 
	C272.338684,177.972931 271.061890,180.443329 269.910553,182.925995 
	C269.910553,182.925995 269.889221,182.801773 269.436798,183.034195 
M294.417633,246.413605 
	C292.932037,249.271744 291.446442,252.129883 289.437134,255.412918 
	C288.196014,257.832428 286.954895,260.251923 285.190674,263.122803 
	C283.232147,266.668060 281.273621,270.213287 279.287933,273.807678 
	C292.602631,279.010040 311.410126,275.310760 317.273926,261.419006 
	C318.887238,259.103333 320.500549,256.787659 322.682343,254.023376 
	C324.830414,250.444092 326.978485,246.864822 329.640839,242.824539 
	C331.092926,240.215668 332.545013,237.606781 334.501495,234.551041 
	C336.677490,230.703613 338.853516,226.856186 341.534882,222.556122 
	C343.737152,218.482101 345.939392,214.408096 348.670776,209.861404 
	C350.885559,205.618103 353.100342,201.374802 355.802094,196.630081 
	C359.603943,189.211487 363.405792,181.792892 367.723602,173.887512 
	C386.647400,138.191437 405.571198,102.495361 424.992798,65.860283 
	C417.166443,65.860283 411.021332,65.933533 404.879120,65.832062 
	C401.350616,65.773766 399.157745,67.123207 397.383881,70.349632 
	C384.251404,94.235542 370.974030,118.042450 357.600342,141.794312 
	C355.870026,144.867416 355.542145,146.734650 358.705933,149.234711 
	C362.529785,152.256332 363.316986,156.899475 361.947693,161.490234 
	C360.598724,166.012955 357.762695,170.273819 352.717834,169.932968 
	C345.584290,169.451004 342.492981,173.226990 339.812317,179.297180 
	C336.443329,185.202606 333.074310,191.108032 329.199585,197.418716 
	C328.091095,199.261887 326.959106,201.091415 325.879761,202.951508 
	C324.320496,205.638672 323.138153,208.349457 325.882874,211.967804 
	C325.496338,215.666397 325.109802,219.364990 324.164581,223.401749 
	C320.519318,228.036652 315.866943,228.459091 310.421478,227.301636 
	C308.504395,226.894180 305.436035,227.653427 304.237457,229.040970 
	C302.055359,231.567169 300.877869,234.961151 298.839783,238.548721 
	C297.538483,241.025940 296.237183,243.503159 294.417633,246.413605 
M217.285126,321.871735 
	C220.864716,324.611420 224.444290,327.351074 228.547714,330.537537 
	C231.999084,331.726135 235.450439,332.914734 238.950363,334.097107 
	C238.950363,334.097107 238.944931,334.048462 239.066849,334.633087 
	C239.420898,334.803833 239.774933,334.974579 240.748322,335.568604 
	C248.152573,335.694611 255.556839,335.820648 263.704498,335.905396 
	C270.721313,333.866241 277.239746,330.617889 281.633484,324.781281 
	C290.285461,313.288025 298.521881,301.472351 306.641113,289.592468 
	C309.831207,284.924774 312.246429,279.727478 315.011597,274.776611 
	C308.669128,277.009277 302.822418,279.067413 296.058960,281.070984 
	C292.362518,281.094147 288.666107,281.117310 284.214996,280.989227 
	C281.503906,280.278778 278.792847,279.568329 275.628326,278.380524 
	C273.593262,277.533295 271.558228,276.686066 269.075775,275.287689 
	C267.086243,273.468353 265.096710,271.649048 262.794495,269.278992 
	C261.378265,267.815857 259.962036,266.352722 258.259186,264.223083 
	C255.540009,259.760468 252.820816,255.297836 249.992111,250.153595 
	C248.473862,247.393539 246.955612,244.633484 245.241699,241.154831 
	C243.626801,237.408829 242.011902,233.662827 240.222183,229.176941 
	C237.860886,224.046860 235.499588,218.916779 233.064255,213.070450 
	C227.364853,200.714584 221.665451,188.358734 215.934235,175.276718 
	C213.094131,169.129623 210.254028,162.982529 207.259445,156.112503 
	C204.499786,150.408981 201.740128,144.705460 199.039612,138.251480 
	C195.647964,131.187943 192.256302,124.124413 188.697571,116.396469 
	C184.144501,110.223106 179.591431,104.049736 174.843658,97.247330 
	C169.576889,92.476784 164.310135,87.706238 159.021500,82.973999 
	C159.021500,82.973999 159.058121,82.968079 158.722458,82.444328 
	C158.172424,82.153648 157.622391,81.862961 156.657974,81.067505 
	C149.443939,77.761406 142.229889,74.455299 134.203262,71.000587 
	C130.622223,69.984245 127.088181,68.328430 123.452103,68.061279 
	C106.944237,66.848427 90.409515,65.991035 73.878426,65.120193 
	C72.218491,65.032745 70.517891,65.717407 67.653320,66.273270 
	C79.636116,71.403809 88.533470,78.743401 97.050880,87.670547 
	C101.266655,93.135857 105.482422,98.601166 109.923904,104.744774 
	C112.930534,109.828995 115.937157,114.913223 119.144112,120.688416 
	C121.858093,126.163826 124.572075,131.639236 127.517197,137.855225 
	C129.855087,142.944443 132.192978,148.033661 134.750198,153.844681 
	C137.294250,159.205750 139.838318,164.566833 142.540207,170.704132 
	C145.375610,176.799774 148.211014,182.895401 151.107437,189.712143 
	C160.066849,209.143784 169.026260,228.575439 178.045624,248.728500 
	C180.638245,254.185303 183.230865,259.642120 186.018021,265.784180 
	C187.570358,268.890747 189.122696,271.997284 190.776123,275.857025 
	C192.774658,280.079315 194.773178,284.301605 196.864899,289.213257 
	C198.977325,293.465668 201.089737,297.718048 203.344482,302.637634 
	C205.547806,306.101685 207.751114,309.565735 210.179810,313.665710 
	C212.417984,316.230469 214.656158,318.795227 217.285126,321.871735 
M305.710876,159.027817 
	C304.150208,159.920639 302.389648,160.586533 301.067963,161.750702 
	C297.697235,164.719696 297.548828,169.041672 300.492767,171.711227 
	C303.456512,174.398758 308.553009,173.891174 311.118530,170.652893 
	C314.672913,166.166473 312.650543,161.078415 305.710876,159.027817 
M338.082367,126.378090 
	C337.467010,123.530350 337.446991,120.306297 335.985107,117.993683 
	C335.254486,116.837875 331.112671,116.357353 329.888062,117.319885 
	C327.703644,119.036789 325.514801,122.001076 325.318787,124.594261 
	C325.164734,126.631683 327.553497,129.851257 329.627197,130.843704 
	C333.052460,132.482956 335.871643,130.138260 338.082367,126.378090 
M349.268036,150.922012 
	C347.426147,153.089157 344.778809,154.985474 343.937073,157.488892 
	C342.766693,160.969879 345.932831,164.685425 349.287781,164.970764 
	C353.004700,165.286865 356.604370,162.070297 356.969391,158.106720 
	C357.392334,153.513535 355.207062,151.221161 349.268036,150.922012 
M318.542755,209.802719 
	C317.285156,209.517639 315.990692,208.883942 314.776825,209.012314 
	C311.009613,209.410675 307.827454,213.461746 308.270203,217.148026 
	C308.673645,220.506989 310.479095,222.974808 314.021820,222.794983 
	C317.908569,222.597687 320.607361,220.149704 320.920288,216.225235 
	C321.073914,214.298126 319.816223,212.258469 318.542755,209.802719 
z"/>
<path fill="#FEFEFE" opacity="1.000000" stroke="none" 
	d="
M1.000000,450.468658 
	C2.161640,450.055054 3.323278,450.158295 4.484919,450.158325 
	C169.681030,450.160583 334.877136,450.155396 500.536621,450.075256 
	C501.000000,466.987640 501.000000,483.975250 501.000000,500.956726 
	C334.333313,500.950562 167.666656,500.950562 1.000000,500.950562 
	C1.000000,484.246521 1.000000,467.591919 1.000000,450.468658 
z"/>
<path fill="#5E00C0" opacity="1.000000" stroke="none" 
	d="
M177.985672,248.007095 
	C169.026260,228.575439 160.066849,209.143784 151.506653,189.355133 
	C156.455276,188.200836 161.463348,188.352173 165.463196,186.418259 
	C175.235596,181.693222 185.740097,180.789749 196.105957,179.016205 
	C202.704666,177.887192 209.344604,176.999023 215.966049,176.002869 
	C221.665451,188.358734 227.364853,200.714584 232.886307,213.721130 
	C226.010971,219.914597 218.924530,225.060730 212.739944,231.126389 
	C207.839813,235.932312 203.212677,240.670898 196.453735,242.754471 
	C190.334106,244.640961 185.038910,249.395752 177.985672,248.007095 
z"/>
<path fill="#E89F00" opacity="1.000000" stroke="none" 
	d="
M340.234467,178.847763 
	C342.492981,173.226990 345.584290,169.451004 352.717834,169.932968 
	C357.762695,170.273819 360.598724,166.012955 361.947693,161.490234 
	C363.316986,156.899475 362.529785,152.256332 358.705933,149.234711 
	C355.542145,146.734650 355.870026,144.867416 357.600342,141.794312 
	C370.974030,118.042450 384.251404,94.235542 397.383881,70.349632 
	C399.157745,67.123207 401.350616,65.773766 404.879120,65.832062 
	C411.021332,65.933533 417.166443,65.860283 424.992798,65.860283 
	C405.571198,102.495361 386.647400,138.191437 367.227295,173.799866 
	C364.565491,173.879105 362.349304,173.808136 360.243835,174.256821 
	C353.551849,175.682983 346.901123,177.302795 340.234467,178.847763 
z"/>
<path fill="#F4BE2B" opacity="1.000000" stroke="none" 
	d="
M290.013977,145.002243 
	C296.527832,132.674393 302.969971,120.307922 309.582916,108.033447 
	C313.445465,100.864075 317.218658,93.604530 321.671539,86.804291 
	C330.042816,74.020096 341.751923,66.236397 357.331970,65.245438 
	C359.750488,65.091606 362.230835,65.910103 365.416656,66.389404 
	C363.751007,69.459373 362.255402,72.294876 360.688354,75.090309 
	C354.590393,85.968361 348.457184,96.826645 342.366760,107.708878 
	C340.908722,110.314034 339.560028,112.055191 335.787384,111.276581 
	C324.202667,108.885735 317.395142,116.023857 319.036072,128.467346 
	C317.060730,129.874283 315.279175,130.640930 313.776306,131.776443 
	C306.466858,137.299164 299.391754,143.206711 290.013977,145.002243 
z"/>
<path fill="#5900B8" opacity="1.000000" stroke="none" 
	d="
M215.950134,175.639801 
	C209.344604,176.999023 202.704666,177.887192 196.105957,179.016205 
	C185.740097,180.789749 175.235596,181.693222 165.463196,186.418259 
	C161.463348,188.352173 156.455276,188.200836 151.476135,188.994583 
	C148.211014,182.895401 145.375610,176.799774 142.924255,170.343445 
	C146.968231,169.673996 150.813324,169.975510 154.250519,168.932602 
	C162.011414,166.577789 169.418427,162.954544 177.254639,160.978348 
	C185.199890,158.974670 193.482742,158.293640 201.630188,157.119797 
	C203.532272,156.845764 205.484680,156.920929 207.413925,156.835434 
	C210.254028,162.982529 213.094131,169.129623 215.950134,175.639801 
z"/>
<path fill="#4F00A4" opacity="1.000000" stroke="none" 
	d="
M134.530853,153.122864 
	C132.192978,148.033661 129.855087,142.944443 127.841972,137.460815 
	C132.467224,135.156860 136.853043,133.416962 141.051483,131.304657 
	C151.881821,125.855736 163.038803,121.875458 175.295227,120.794479 
	C179.822052,120.395233 185.412354,122.038155 188.864639,117.060883 
	C192.256302,124.124413 195.647964,131.187943 198.597961,138.627167 
	C194.499512,138.735443 190.843521,138.455887 187.185272,138.209961 
	C186.368149,138.155045 185.481293,138.021790 184.731293,138.257645 
	C177.974365,140.382523 171.283920,142.728485 164.490158,144.724243 
	C154.539978,147.647217 144.520691,150.334915 134.530853,153.122864 
z"/>
<path fill="#5400AE" opacity="1.000000" stroke="none" 
	d="
M134.640533,153.483765 
	C144.520691,150.334915 154.539978,147.647217 164.490158,144.724243 
	C171.283920,142.728485 177.974365,140.382523 184.731293,138.257645 
	C185.481293,138.021790 186.368149,138.155045 187.185272,138.209961 
	C190.843521,138.455887 194.499512,138.735443 198.568390,139.002380 
	C201.740128,144.705460 204.499786,150.408981 207.336685,156.473969 
	C205.484680,156.920929 203.532272,156.845764 201.630188,157.119797 
	C193.482742,158.293640 185.199890,158.974670 177.254639,160.978348 
	C169.418427,162.954544 162.011414,166.577789 154.250519,168.932602 
	C150.813324,169.975510 146.968231,169.673996 142.845337,169.955322 
	C139.838318,164.566833 137.294250,159.205750 134.640533,153.483765 
z"/>
<path fill="#4A009A" opacity="1.000000" stroke="none" 
	d="
M188.781097,116.728676 
	C185.412354,122.038155 179.822052,120.395233 175.295227,120.794479 
	C163.038803,121.875458 151.881821,125.855736 141.051483,131.304657 
	C136.853043,133.416962 132.467224,135.156860 127.726395,137.090515 
	C124.572075,131.639236 121.858093,126.163826 119.435974,120.342354 
	C123.974060,118.003288 128.499252,116.445381 132.414047,113.935440 
	C144.012589,106.499123 156.819412,103.331680 170.290222,101.831291 
	C171.998566,101.641006 173.461655,99.248573 175.038361,97.876373 
	C179.591431,104.049736 184.144501,110.223106 188.781097,116.728676 
z"/>
<path fill="#5900B8" opacity="1.000000" stroke="none" 
	d="
M178.015656,248.367798 
	C185.038910,249.395752 190.334106,244.640961 196.453735,242.754471 
	C203.212677,240.670898 207.839813,235.932312 212.739944,231.126389 
	C218.924530,225.060730 226.010971,219.914597 232.923325,214.079254 
	C235.499588,218.916779 237.860886,224.046860 239.911133,229.571671 
	C238.295731,230.583649 236.769043,230.947372 235.725861,231.862366 
	C231.391647,235.663910 227.257309,239.692474 222.950195,243.526016 
	C213.732651,251.730133 204.150620,259.244049 191.448013,261.471161 
	C189.423386,261.826111 187.690994,263.847778 185.823502,265.098907 
	C183.230865,259.642120 180.638245,254.185303 178.015656,248.367798 
z"/>
<path fill="#450090" opacity="1.000000" stroke="none" 
	d="
M174.941010,97.561852 
	C173.461655,99.248573 171.998566,101.641006 170.290222,101.831291 
	C156.819412,103.331680 144.012589,106.499123 132.414047,113.935440 
	C128.499252,116.445381 123.974060,118.003288 119.335808,119.996872 
	C115.937157,114.913223 112.930534,109.828995 110.216492,104.381630 
	C111.160889,103.910393 111.877007,103.941292 112.455116,103.673866 
	C126.402550,97.221817 140.302826,90.696068 155.501617,87.493690 
	C156.938538,87.190941 157.874710,84.511635 159.043365,82.935684 
	C164.310135,87.706238 169.576889,92.476784 174.941010,97.561852 
z"/>
<path fill="#410088" opacity="1.000000" stroke="none" 
	d="
M159.032440,82.954842 
	C157.874710,84.511635 156.938538,87.190941 155.501617,87.493690 
	C140.302826,90.696068 126.402550,97.221817 112.455116,103.673866 
	C111.877007,103.941292 111.160889,103.910393 110.103630,104.042480 
	C105.482422,98.601166 101.266655,93.135857 97.279556,87.318817 
	C108.530777,83.659424 119.507622,80.185173 130.602753,77.142197 
	C134.085739,76.186943 135.201675,74.368858 135.015854,71.149200 
	C142.229889,74.455299 149.443939,77.761406 156.968719,81.645271 
	C157.872345,82.471390 158.465225,82.719734 159.058121,82.968079 
	C159.058121,82.968079 159.021500,82.973999 159.032440,82.954842 
z"/>
<path fill="#290051" opacity="1.000000" stroke="none" 
	d="
M296.975739,281.125519 
	C302.822418,279.067413 308.669128,277.009277 315.011597,274.776611 
	C312.246429,279.727478 309.831207,284.924774 306.641113,289.592468 
	C298.521881,301.472351 290.285461,313.288025 281.633484,324.781281 
	C277.239746,330.617889 270.721313,333.866241 263.068481,335.655243 
	C260.017853,334.969910 257.603210,334.534760 254.436447,333.964020 
	C255.690948,332.235870 256.186554,331.411102 256.816467,330.706421 
	C268.282288,317.880341 279.912292,305.196106 291.133728,292.160065 
	C293.781189,289.084534 295.064758,284.834991 296.975739,281.125519 
z"/>
<path fill="#E89F00" opacity="1.000000" stroke="none" 
	d="
M372.041107,104.018921 
	C364.990601,116.972206 358.003693,129.961121 350.796753,142.826767 
	C350.027924,144.199280 348.097443,145.187729 346.493713,145.779327 
	C339.864777,148.224731 336.148468,155.368286 339.050781,161.850052 
	C340.756226,165.658783 339.910522,168.475159 337.960144,171.547714 
	C336.557251,173.757767 335.269409,176.040848 333.456573,178.169556 
	C329.102814,178.402832 325.226105,178.983688 321.341614,179.041656 
	C318.227600,179.088120 314.478241,183.991653 312.001282,178.048462 
	C319.000580,172.585190 320.516663,167.682037 317.499390,160.189178 
	C323.222870,155.173386 329.544495,151.262619 334.284332,145.942535 
	C344.958252,133.961899 354.767151,121.214203 365.136719,108.955185 
	C366.907928,106.861221 369.713409,105.642159 372.041107,104.018921 
z"/>
<path fill="#4C009D" opacity="1.000000" stroke="none" 
	d="
M250.101624,250.835220 
	C252.820816,255.297836 255.540009,259.760468 257.982971,264.585754 
	C253.979309,267.291412 249.452988,268.930908 246.662827,272.099274 
	C234.632172,285.760620 219.046173,293.999664 203.202148,301.970459 
	C201.089737,297.718048 198.977325,293.465668 197.054291,288.502991 
	C219.330719,281.863434 236.054031,268.262787 250.101624,250.835220 
z"/>
<path fill="#3C007D" opacity="1.000000" stroke="none" 
	d="
M134.609558,71.074890 
	C135.201675,74.368858 134.085739,76.186943 130.602753,77.142197 
	C119.507622,80.185173 108.530777,83.659424 97.099213,87.024292 
	C88.533470,78.743401 79.636116,71.403809 67.653320,66.273270 
	C70.517891,65.717407 72.218491,65.032745 73.878426,65.120193 
	C90.409515,65.991035 106.944237,66.848427 123.452103,68.061279 
	C127.088181,68.328430 130.622223,69.984245 134.609558,71.074890 
z"/>
<path fill="#5200A8" opacity="1.000000" stroke="none" 
	d="
M250.046875,250.494415 
	C236.054031,268.262787 219.330719,281.863434 197.007690,288.158325 
	C194.773178,284.301605 192.774658,280.079315 191.157196,275.444336 
	C196.134186,273.728943 200.982697,272.979675 205.278503,271.019257 
	C217.951187,265.236023 228.718140,256.776306 238.151398,246.508377 
	C240.032730,244.460571 242.981049,243.393005 245.437378,241.873444 
	C246.955612,244.633484 248.473862,247.393539 250.046875,250.494415 
z"/>
<path fill="#5600B0" opacity="1.000000" stroke="none" 
	d="
M245.339539,241.514130 
	C242.981049,243.393005 240.032730,244.460571 238.151398,246.508377 
	C228.718140,256.776306 217.951187,265.236023 205.278503,271.019257 
	C200.982697,272.979675 196.134186,273.728943 191.106659,275.067749 
	C189.122696,271.997284 187.570358,268.890747 185.920761,265.441528 
	C187.690994,263.847778 189.423386,261.826111 191.448013,261.471161 
	C204.150620,259.244049 213.732651,251.730133 222.950195,243.526016 
	C227.257309,239.692474 231.391647,235.663910 235.725861,231.862366 
	C236.769043,230.947372 238.295731,230.583649 239.998535,229.941620 
	C242.011902,233.662827 243.626801,237.408829 245.339539,241.514130 
z"/>
<path fill="#30005F" opacity="1.000000" stroke="none" 
	d="
M296.517334,281.098267 
	C295.064758,284.834991 293.781189,289.084534 291.133728,292.160065 
	C279.912292,305.196106 268.282288,317.880341 256.816467,330.706421 
	C256.186554,331.411102 255.690948,332.235870 254.436447,333.964020 
	C257.603210,334.534760 260.017853,334.969910 262.696777,335.675903 
	C255.556839,335.820648 248.152573,335.694611 240.297012,335.115112 
	C239.545441,334.457245 239.245193,334.252869 238.944931,334.048462 
	C238.944931,334.048462 238.950363,334.097107 238.960846,333.724304 
	C240.109756,331.614319 240.995834,329.627960 242.426315,328.179138 
	C254.487305,315.963348 266.782898,303.975708 278.677155,291.601532 
	C281.426605,288.741150 282.905884,284.659912 284.969666,281.140472 
	C288.666107,281.117310 292.362518,281.094147 296.517334,281.098267 
z"/>
<path fill="#EDA805" opacity="1.000000" stroke="none" 
	d="
M372.303833,103.801682 
	C369.713409,105.642159 366.907928,106.861221 365.136719,108.955185 
	C354.767151,121.214203 344.958252,133.961899 334.284332,145.942535 
	C329.544495,151.262619 323.222870,155.173386 317.303619,159.867218 
	C314.807770,158.143402 314.452820,156.170517 316.146759,153.655487 
	C317.999054,150.905365 319.664520,148.005737 321.160065,145.044342 
	C323.746063,139.923767 326.559052,136.234406 333.525787,136.856934 
	C339.978912,137.433548 342.664062,131.922607 345.118774,126.036758 
	C346.134735,123.474945 346.148560,121.013817 347.366089,119.562393 
	C351.904114,114.152428 357.276733,109.406830 361.525391,103.797798 
	C369.093933,93.805916 376.082458,83.374115 383.289978,73.109756 
	C384.898804,70.818604 386.410461,68.459213 387.966858,66.131241 
	C389.371429,66.193230 390.776031,66.255211 393.349670,66.368790 
	C386.088715,79.370728 379.327637,91.477585 372.303833,103.801682 
z"/>
<path fill="#37006E" opacity="1.000000" stroke="none" 
	d="
M284.592316,281.064850 
	C282.905884,284.659912 281.426605,288.741150 278.677155,291.601532 
	C266.782898,303.975708 254.487305,315.963348 242.426315,328.179138 
	C240.995834,329.627960 240.109756,331.614319 238.936554,333.727417 
	C235.450439,332.914734 231.999084,331.726135 228.247849,329.956421 
	C226.192139,325.044525 229.185944,322.969666 232.070541,320.986786 
	C249.029938,309.328674 263.916412,295.518005 276.081757,278.857880 
	C278.792847,279.568329 281.503906,280.278778 284.592316,281.064850 
z"/>
<path fill="#450090" opacity="1.000000" stroke="none" 
	d="
M203.273315,302.304047 
	C219.046173,293.999664 234.632172,285.760620 246.662827,272.099274 
	C249.452988,268.930908 253.979309,267.291412 258.126282,264.919006 
	C259.962036,266.352722 261.378265,267.815857 262.795654,269.867920 
	C256.452362,276.550079 250.312363,282.877197 243.696411,288.659729 
	C238.738525,292.993073 233.221207,296.699646 227.855835,300.549957 
	C221.946594,304.790558 215.926331,308.876495 209.954437,313.029785 
	C207.751114,309.565735 205.547806,306.101685 203.273315,302.304047 
z"/>
<path fill="#3C007D" opacity="1.000000" stroke="none" 
	d="
M275.855042,278.619202 
	C263.916412,295.518005 249.029938,309.328674 232.070541,320.986786 
	C229.185944,322.969666 226.192139,325.044525 227.985931,329.733032 
	C224.444290,327.351074 220.864716,324.611420 217.123169,321.210876 
	C218.644608,318.702606 220.001343,316.287292 222.064682,315.100403 
	C234.904343,307.714874 247.172928,299.770172 256.673157,288.024475 
	C260.353210,283.474640 265.205109,279.872620 269.523163,275.838806 
	C271.558228,276.686066 273.593262,277.533295 275.855042,278.619202 
z"/>
<path fill="#410088" opacity="1.000000" stroke="none" 
	d="
M269.299469,275.563232 
	C265.205109,279.872620 260.353210,283.474640 256.673157,288.024475 
	C247.172928,299.770172 234.904343,307.714874 222.064682,315.100403 
	C220.001343,316.287292 218.644608,318.702606 216.927765,320.955017 
	C214.656158,318.795227 212.417984,316.230469 210.067123,313.347748 
	C215.926331,308.876495 221.946594,304.790558 227.855835,300.549957 
	C233.221207,296.699646 238.738525,292.993073 243.696411,288.659729 
	C250.312363,282.877197 256.452362,276.550079 262.951965,270.143311 
	C265.096710,271.649048 267.086243,273.468353 269.299469,275.563232 
z"/>
<path fill="#E29A00" opacity="1.000000" stroke="none" 
	d="
M311.722656,178.057770 
	C314.478241,183.991653 318.227600,179.088120 321.341614,179.041656 
	C325.226105,178.983688 329.102814,178.402832 333.207153,178.440277 
	C329.539978,185.544693 325.648560,192.256546 321.218506,198.834930 
	C314.009277,198.677307 307.332214,198.816544 300.670990,198.553635 
	C297.751953,198.438431 294.865295,197.502274 291.963928,196.938904 
	C294.281250,192.791595 296.796539,188.739868 298.858765,184.469360 
	C300.818542,180.410950 303.642487,178.391846 308.708984,179.211075 
	C309.494965,179.232925 309.755035,179.073761 310.015106,178.914597 
	C310.491425,178.632095 310.967743,178.349594 311.722656,178.057770 
z"/>
<path fill="#F1B51F" opacity="1.000000" stroke="none" 
	d="
M289.912292,145.081604 
	C299.391754,143.206711 306.466858,137.299164 313.776306,131.776443 
	C315.279175,130.640930 317.060730,129.874283 319.116577,128.906860 
	C321.728760,131.652054 321.195740,134.359894 319.432281,137.130096 
	C317.742188,139.785126 316.106995,142.481125 314.579865,145.232498 
	C311.787811,150.262817 309.112762,154.789505 301.904816,154.382416 
	C299.559906,154.249985 297.009369,157.759155 293.897705,159.807541 
	C290.680695,161.003922 288.175964,162.216553 285.534271,162.899384 
	C284.082489,163.274658 282.400116,162.757751 280.821716,162.643112 
	C283.348297,157.578552 285.874878,152.513992 288.929688,147.036362 
	C289.606476,146.216049 289.755035,145.808823 289.903595,145.401596 
	C289.903595,145.401596 289.810577,145.160950 289.912292,145.081604 
z"/>
<path fill="#DE9700" opacity="1.000000" stroke="none" 
	d="
M340.023376,179.072479 
	C346.901123,177.302795 353.551849,175.682983 360.243835,174.256821 
	C362.349304,173.808136 364.565491,173.879105 366.969360,174.043274 
	C363.405792,181.792892 359.603943,189.211487 355.167175,196.796219 
	C352.265259,196.385864 349.972504,195.241089 347.736237,195.342453 
	C341.713074,195.615417 335.713959,196.419922 329.705322,197.013458 
	C333.074310,191.108032 336.443329,185.202606 340.023376,179.072479 
z"/>
<path fill="#D38D00" opacity="1.000000" stroke="none" 
	d="
M291.695679,197.147202 
	C294.865295,197.502274 297.751953,198.438431 300.670990,198.553635 
	C307.332214,198.816544 314.009277,198.677307 320.950134,199.058380 
	C320.613770,202.590179 318.489685,203.513138 315.494720,203.672104 
	C306.502686,204.149353 303.003937,207.973312 302.393005,217.563904 
	C297.958649,218.306320 294.028809,218.768860 290.087555,218.907410 
	C286.655182,219.028046 282.937225,221.189133 279.873352,217.791855 
	C283.724731,210.979736 287.576080,204.167618 291.695679,197.147202 
z"/>
<path fill="#E89F00" opacity="1.000000" stroke="none" 
	d="
M261.894958,197.801941 
	C263.830231,194.029037 265.765533,190.256149 268.131836,186.045746 
	C268.675934,185.276840 268.789001,184.945435 268.902069,184.614044 
	C268.902069,184.614044 268.872925,184.235687 269.201477,183.958984 
	C269.753815,183.431274 269.873535,183.137756 269.889221,182.801773 
	C269.889221,182.801773 269.910553,182.925995 270.215759,182.822205 
	C278.064636,184.225922 285.303009,182.968521 292.425446,180.403625 
	C292.885895,180.237808 293.628815,180.856354 294.240295,181.110016 
	C290.383575,188.010651 286.526855,194.911285 282.152527,201.710388 
	C279.881012,201.522064 278.079590,201.661514 276.382111,201.305496 
	C271.520538,200.285904 265.694031,203.176651 261.894958,197.801941 
z"/>
<path fill="#F1AF11" opacity="1.000000" stroke="none" 
	d="
M387.541626,66.025116 
	C386.410461,68.459213 384.898804,70.818604 383.289978,73.109756 
	C376.082458,83.374115 369.093933,93.805916 361.525391,103.797798 
	C357.276733,109.406830 351.904114,114.152428 347.366089,119.562393 
	C346.148560,121.013817 346.134735,123.474945 345.295105,125.731262 
	C344.278076,120.569565 343.058685,115.080673 347.823608,110.019058 
	C348.568787,109.088799 348.761993,108.513893 348.955200,107.938980 
	C348.955200,107.938980 349.001892,107.987335 349.228363,107.800133 
	C349.598267,107.222359 349.741730,106.831795 349.885162,106.441223 
	C349.885162,106.441223 349.830322,106.147957 350.163635,105.923355 
	C350.622284,105.391762 350.747650,105.084755 350.872986,104.777756 
	C350.873016,104.777763 350.882751,104.892326 351.211853,104.861183 
	C351.996979,103.512756 352.453033,102.195473 352.909058,100.878189 
	C352.909058,100.878189 352.949158,100.953438 353.176056,100.813972 
	C353.600281,100.119652 353.797577,99.564796 353.994873,99.009933 
	C353.994904,99.009941 353.996582,98.999237 354.354004,98.962440 
	C356.594910,97.626076 358.879822,96.660217 360.288300,94.965813 
	C364.945648,89.363075 369.416840,83.592026 373.701385,77.697983 
	C376.372833,74.023056 378.579041,70.009972 380.994019,66.148651 
	C383.034821,66.072098 385.075592,65.995552 387.541626,66.025116 
z"/>
<path fill="#8A4D00" opacity="1.000000" stroke="none" 
	d="
M316.926514,261.985626 
	C311.410126,275.310760 292.602631,279.010040 279.287933,273.807678 
	C281.273621,270.213287 283.232147,266.668060 285.725464,263.221497 
	C293.015747,262.308350 299.889191,261.766632 306.483551,260.112457 
	C310.595398,259.081024 313.921570,258.596252 316.926514,261.985626 
z"/>
<path fill="#B47300" opacity="1.000000" stroke="none" 
	d="
M341.029541,223.008789 
	C338.853516,226.856186 336.677490,230.703613 333.973572,234.537415 
	C332.500885,231.383102 330.343872,231.851974 327.919006,232.500793 
	C320.612854,234.455658 313.302216,236.413574 305.928101,238.082031 
	C303.826752,238.557465 301.502960,238.049866 299.281189,237.993057 
	C300.877869,234.961151 302.055359,231.567169 304.237457,229.040970 
	C305.436035,227.653427 308.504395,226.894180 310.421478,227.301636 
	C315.866943,228.459091 320.519318,228.036652 324.916382,223.211884 
	C330.788605,223.017593 335.909088,223.013184 341.029541,223.008789 
z"/>
<path fill="#D38D00" opacity="1.000000" stroke="none" 
	d="
M329.452454,197.216095 
	C335.713959,196.419922 341.713074,195.615417 347.736237,195.342453 
	C349.972504,195.241089 352.265259,196.385864 354.923676,197.046936 
	C353.100342,201.374802 350.885559,205.618103 348.194214,209.759827 
	C345.241852,209.236481 342.708893,208.261078 340.302155,208.509338 
	C335.444519,209.010376 330.655426,210.176407 325.838074,211.068146 
	C323.138153,208.349457 324.320496,205.638672 325.879761,202.951508 
	C326.959106,201.091415 328.091095,199.261887 329.452454,197.216095 
z"/>
<path fill="#C48100" opacity="1.000000" stroke="none" 
	d="
M249.760254,237.108475 
	C246.343903,231.339020 245.821106,225.628067 250.638916,220.109406 
	C253.541946,220.272156 255.911697,220.387375 258.281891,220.397079 
	C262.514984,220.414413 266.998566,218.321472 270.787476,221.936340 
	C267.938141,226.773972 265.088837,231.611603 261.562988,236.717590 
	C257.177704,237.026779 253.468979,237.067627 249.760254,237.108475 
z"/>
<path fill="#965800" opacity="1.000000" stroke="none" 
	d="
M317.100220,261.702332 
	C313.921570,258.596252 310.595398,259.081024 306.483551,260.112457 
	C299.889191,261.766632 293.015747,262.308350 285.987000,262.995819 
	C286.954895,260.251923 288.196014,257.832428 290.143127,255.203659 
	C299.348511,253.452866 307.867676,252.010468 316.338135,250.323593 
	C320.002991,249.593750 322.186584,250.300293 322.113831,254.471985 
	C320.500549,256.787659 318.887238,259.103333 317.100220,261.702332 
z"/>
<path fill="#A06100" opacity="1.000000" stroke="none" 
	d="
M322.398071,254.247681 
	C322.186584,250.300293 320.002991,249.593750 316.338135,250.323593 
	C307.867676,252.010468 299.348511,253.452866 290.404968,254.991211 
	C291.446442,252.129883 292.932037,249.271744 295.069092,246.209015 
	C297.484222,246.053192 299.310791,246.424591 301.000671,246.095032 
	C308.426331,244.646851 315.780334,242.804123 323.236023,241.556732 
	C325.052277,241.252853 327.155365,242.663330 329.126587,243.285553 
	C326.978485,246.864822 324.830414,250.444092 322.398071,254.247681 
z"/>
<path fill="#AB6A00" opacity="1.000000" stroke="none" 
	d="
M329.383728,243.055054 
	C327.155365,242.663330 325.052277,241.252853 323.236023,241.556732 
	C315.780334,242.804123 308.426331,244.646851 301.000671,246.095032 
	C299.310791,246.424591 297.484222,246.053192 295.328247,245.992401 
	C296.237183,243.503159 297.538483,241.025940 299.060486,238.270889 
	C301.502960,238.049866 303.826752,238.557465 305.928101,238.082031 
	C313.302216,236.413574 320.612854,234.455658 327.919006,232.500793 
	C330.343872,231.851974 332.500885,231.383102 333.721375,234.760834 
	C332.545013,237.606781 331.092926,240.215668 329.383728,243.055054 
z"/>
<path fill="#C48100" opacity="1.000000" stroke="none" 
	d="
M325.860474,211.517975 
	C330.655426,210.176407 335.444519,209.010376 340.302155,208.509338 
	C342.708893,208.261078 345.241852,209.236481 347.929657,209.996170 
	C345.939392,214.408096 343.737152,218.482101 341.282227,222.782455 
	C335.909088,223.013184 330.788605,223.017593 325.195709,223.042786 
	C325.109802,219.364990 325.496338,215.666397 325.860474,211.517975 
z"/>
<path fill="#B47300" opacity="1.000000" stroke="none" 
	d="
M297.259857,229.627762 
	C295.727112,232.685867 294.194397,235.743988 292.109253,238.684052 
	C289.761719,238.377579 287.960510,237.984711 286.172485,238.037643 
	C279.881836,238.223816 273.595673,238.563110 267.307831,238.844330 
	C269.310394,235.301865 271.312958,231.759415 273.881470,228.334991 
	C279.809204,228.405685 285.174652,228.226242 290.531097,228.373749 
	C292.783813,228.435806 295.017517,229.188843 297.259857,229.627762 
z"/>
<path fill="#C48100" opacity="1.000000" stroke="none" 
	d="
M297.552795,229.417053 
	C295.017517,229.188843 292.783813,228.435806 290.531097,228.373749 
	C285.174652,228.226242 279.809204,228.405685 274.157013,228.131805 
	C275.676636,224.596939 277.486633,221.383286 279.584961,217.980743 
	C282.937225,221.189133 286.655182,219.028046 290.087555,218.907410 
	C294.028809,218.768860 297.958649,218.306320 302.338318,217.981842 
	C301.137329,221.721558 299.491516,225.463943 297.552795,229.417053 
z"/>
<path fill="#DE9700" opacity="1.000000" stroke="none" 
	d="
M261.610107,198.006622 
	C265.694031,203.176651 271.520538,200.285904 276.382111,201.305496 
	C278.079590,201.661514 279.881012,201.522064 281.881226,201.925278 
	C280.600616,205.023651 279.073792,207.805649 276.817505,210.794769 
	C269.070984,211.003922 262.053833,211.005936 255.036713,211.007950 
	C257.132904,206.742416 259.229095,202.476868 261.610107,198.006622 
z"/>
<path fill="#F1B51F" opacity="1.000000" stroke="none" 
	d="
M380.562744,66.072983 
	C378.579041,70.009972 376.372833,74.023056 373.701385,77.697983 
	C369.416840,83.592026 364.945648,89.363075 360.288300,94.965813 
	C358.879822,96.660217 356.594910,97.626076 354.357910,98.959030 
	C359.590790,88.910934 365.159149,78.819389 370.772644,68.753014 
	C372.964325,64.822784 376.772247,66.108391 380.562744,66.072983 
z"/>
<path fill="#AB6A00" opacity="1.000000" stroke="none" 
	d="
M262.797974,259.485504 
	C259.168396,256.222137 257.190155,252.744247 262.088318,248.235275 
	C271.314240,247.371964 279.818268,246.740158 288.322327,246.108337 
	C286.481110,249.445358 284.639893,252.782379 282.313232,255.994919 
	C276.385803,256.172913 270.931335,256.350433 265.513397,256.892487 
	C264.531616,256.990723 263.699310,258.582977 262.797974,259.485504 
z"/>
<path fill="#B06F00" opacity="1.000000" stroke="none" 
	d="
M288.582092,245.913361 
	C279.818268,246.740158 271.314240,247.371964 262.351715,248.005951 
	C263.559479,245.104294 265.225677,242.200455 267.099854,239.070480 
	C273.595673,238.563110 279.881836,238.223816 286.172485,238.037643 
	C287.960510,237.984711 289.761719,238.377579 291.835480,238.892853 
	C291.023315,241.385910 289.932587,243.552155 288.582092,245.913361 
z"/>
<path fill="#D38D00" opacity="1.000000" stroke="none" 
	d="
M254.780945,211.234085 
	C262.053833,211.005936 269.070984,211.003922 276.558655,211.006683 
	C275.086334,214.466888 273.143494,217.922302 270.994080,221.657028 
	C266.998566,218.321472 262.514984,220.414413 258.281891,220.397079 
	C255.911697,220.387375 253.541946,220.272156 250.895584,219.852539 
	C251.921188,216.820465 253.223190,214.140350 254.780945,211.234085 
z"/>
<path fill="#EDA805" opacity="1.000000" stroke="none" 
	d="
M294.484863,180.908401 
	C293.628815,180.856354 292.885895,180.237808 292.425446,180.403625 
	C285.303009,182.968521 278.064636,184.225922 270.153076,182.816086 
	C271.061890,180.443329 272.338684,177.972931 274.309265,175.256592 
	C281.556335,176.292236 287.140472,173.218307 292.920288,171.023880 
	C294.241516,174.117325 298.232666,176.711945 294.484863,180.908401 
z"/>
<path fill="#965800" opacity="1.000000" stroke="none" 
	d="
M262.904877,259.785583 
	C263.699310,258.582977 264.531616,256.990723 265.513397,256.892487 
	C270.931335,256.350433 276.385803,256.172913 282.076294,256.259399 
	C280.322113,260.401978 278.340363,264.167023 276.308472,267.904785 
	C275.125793,270.080383 273.440704,270.661194 271.562195,268.837219 
	C268.637177,265.997162 265.854675,263.010284 262.904877,259.785583 
z"/>
<path fill="#F1AF11" opacity="1.000000" stroke="none" 
	d="
M292.906250,170.574707 
	C287.140472,173.218307 281.556335,176.292236 274.552979,175.019409 
	C276.161194,171.048233 278.219452,167.068314 280.549744,162.865753 
	C282.400116,162.757751 284.082489,163.274658 285.534271,162.899384 
	C288.175964,162.216553 290.680695,161.003922 293.623596,160.008057 
	C293.633820,163.377670 293.263031,166.751602 292.906250,170.574707 
z"/>
<path fill="#E29A00" opacity="1.000000" stroke="none" 
	d="
M306.095245,159.004822 
	C312.650543,161.078415 314.672913,166.166473 311.118530,170.652893 
	C308.553009,173.891174 303.456512,174.398758 300.492767,171.711227 
	C297.548828,169.041672 297.697235,164.719696 301.067963,161.750702 
	C302.389648,160.586533 304.150208,159.920639 306.095245,159.004822 
z"/>
<path fill="#F1AF11" opacity="1.000000" stroke="none" 
	d="
M337.932343,126.721878 
	C335.871643,130.138260 333.052460,132.482956 329.627197,130.843704 
	C327.553497,129.851257 325.164734,126.631683 325.318787,124.594261 
	C325.514801,122.001076 327.703644,119.036789 329.888062,117.319885 
	C331.112671,116.357353 335.254486,116.837875 335.985107,117.993683 
	C337.446991,120.306297 337.467010,123.530350 337.932343,126.721878 
z"/>
<path fill="#E29A00" opacity="1.000000" stroke="none" 
	d="
M349.615723,150.839737 
	C355.207062,151.221161 357.392334,153.513535 356.969391,158.106720 
	C356.604370,162.070297 353.004700,165.286865 349.287781,164.970764 
	C345.932831,164.685425 342.766693,160.969879 343.937073,157.488892 
	C344.778809,154.985474 347.426147,153.089157 349.615723,150.839737 
z"/>
<path fill="#C48100" opacity="1.000000" stroke="none" 
	d="
M318.869995,210.036224 
	C319.816223,212.258469 321.073914,214.298126 320.920288,216.225235 
	C320.607361,220.149704 317.908569,222.597687 314.021820,222.794983 
	C310.479095,222.974808 308.673645,220.506989 308.270203,217.148026 
	C307.827454,213.461746 311.009613,209.410675 314.776825,209.012314 
	C315.990692,208.883942 317.285156,209.517639 318.869995,210.036224 
z"/>
<path fill="#B47300" opacity="1.000000" stroke="none" 
	d="
M249.865295,237.458557 
	C253.468979,237.067627 257.177704,237.026779 261.333374,236.978714 
	C259.840637,240.403854 257.900909,243.836197 255.233170,248.556717 
	C253.093353,244.186676 251.531845,240.997665 249.865295,237.458557 
z"/>
<path fill="#F1B51F" opacity="1.000000" stroke="none" 
	d="
M352.637939,101.068672 
	C352.453033,102.195473 351.996979,103.512756 351.157135,104.843491 
	C351.304504,103.657669 351.835663,102.458412 352.637939,101.068672 
z"/>
<path fill="#F1B51F" opacity="1.000000" stroke="none" 
	d="
M348.704834,108.109970 
	C348.761993,108.513893 348.568787,109.088799 348.096741,109.805527 
	C348.030060,109.391876 348.242249,108.836411 348.704834,108.109970 
z"/>
<path fill="#F1B51F" opacity="1.000000" stroke="none" 
	d="
M353.755920,99.181679 
	C353.797577,99.564796 353.600281,100.119652 353.133423,100.814133 
	C353.081604,100.420319 353.299316,99.886871 353.755920,99.181679 
z"/>
<path fill="#450090" opacity="1.000000" stroke="none" 
	d="
M158.890289,82.706207 
	C158.465225,82.719734 157.872345,82.471390 157.175903,81.897659 
	C157.622391,81.862961 158.172424,82.153648 158.890289,82.706207 
z"/>
<path fill="#E89F00" opacity="1.000000" stroke="none" 
	d="
M309.753937,178.891998 
	C309.755035,179.073761 309.494965,179.232925 309.125519,179.239929 
	C309.175018,179.014984 309.333893,178.942200 309.753937,178.891998 
z"/>
<path fill="#EDA805" opacity="1.000000" stroke="none" 
	d="
M269.663025,182.917984 
	C269.873535,183.137756 269.753815,183.431274 269.336914,183.826126 
	C269.241455,183.658035 269.339111,183.346115 269.663025,182.917984 
z"/>
<path fill="#F4BE2B" opacity="1.000000" stroke="none" 
	d="
M289.630646,145.593506 
	C289.755035,145.808823 289.606476,146.216049 289.199890,146.826065 
	C289.080475,146.614365 289.219086,146.199890 289.630646,145.593506 
z"/>
<path fill="#EDA805" opacity="1.000000" stroke="none" 
	d="
M268.684631,184.777802 
	C268.789001,184.945435 268.675934,185.276840 268.363525,185.782562 
	C268.265198,185.618439 268.366211,185.279999 268.684631,184.777802 
z"/>
<path fill="#F1B51F" opacity="1.000000" stroke="none" 
	d="
M349.623047,106.620857 
	C349.741730,106.831795 349.598267,107.222359 349.195557,107.792908 
	C349.077850,107.582092 349.219391,107.191292 349.623047,106.620857 
z"/>
<path fill="#F1B51F" opacity="1.000000" stroke="none" 
	d="
M350.636658,104.894562 
	C350.747650,105.084755 350.622284,105.391762 350.288330,105.841469 
	C350.186554,105.659912 350.293427,105.335648 350.636658,104.894562 
z"/>
<path fill="#37006E" opacity="1.000000" stroke="none" 
	d="
M239.005890,334.340759 
	C239.245193,334.252869 239.545441,334.457245 239.987335,334.903503 
	C239.774933,334.974579 239.420898,334.803833 239.005890,334.340759 
z"/>
</svg>